<?xml version="1.0" standalone="no"?>
<!DOCTYPE svg PUBLIC "-//W3C//DTD SVG 20010904//EN"
 "http://www.w3.org/TR/2001/REC-SVG-20010904/DTD/svg10.dtd">
<svg version="1.0" xmlns="http://www.w3.org/2000/svg"
 width="922.000000pt" height="922.000000pt" viewBox="0 0 922.000000 922.000000"
 preserveAspectRatio="xMidYMid meet">
<metadata>
Created by potrace 1.14, written by Peter Selinger 2001-2017
</metadata>
<g transform="translate(0.000000,922.000000) scale(0.100000,-0.100000)"
fill="#000000" stroke="none">
<path d="M10 4610 l0 -4580 4600 0 4600 0 0 4580 0 4580 -4600 0 -4600 0 0
-4580z m2694 2623 c12 -38 -5 -35 306 -59 118 -9 257 -22 309 -30 66 -10 97
-11 101 -3 5 7 63 7 196 -1 104 -6 308 -10 454 -8 243 3 265 4 268 21 3 15 -5
17 -57 17 -58 0 -61 1 -61 25 l0 25 140 0 140 0 0 -25 c0 -24 -3 -25 -55 -25
-48 0 -55 -2 -55 -20 0 -20 7 -20 298 -20 171 0 332 -5 380 -12 63 -8 95 -8
134 1 69 16 116 39 123 62 5 16 16 19 71 19 35 0 64 3 64 8 1 4 11 20 24 36
l24 28 31 -18 c17 -10 31 -26 31 -36 0 -15 8 -18 45 -18 39 0 49 5 80 38 39
41 37 41 78 -21 11 -17 17 -18 54 -8 30 8 67 8 130 1 50 -6 362 -10 727 -10
444 0 658 -4 702 -12 47 -8 70 -8 88 0 22 10 358 -2 616 -22 339 -27 516 -47
611 -70 53 -12 61 -11 119 10 l61 24 -3 -27 -3 -27 -194 -33 c-229 -38 -238
-40 -195 -59 51 -22 53 -55 4 -99 -18 -16 -25 -17 -52 -7 -27 10 -33 9 -45 -7
-7 -11 -27 -22 -44 -26 -25 -6 -30 -11 -27 -33 l3 -27 159 -12 c88 -6 173 -14
190 -17 17 -4 64 1 104 10 l74 16 60 -58 c86 -85 87 -89 36 -116 -38 -19 -63
-23 -204 -28 -160 -5 -161 -5 -213 -37 l-52 -33 -152 0 c-84 0 -169 5 -189 10
-24 7 -44 7 -55 2 -11 -6 -46 -6 -88 -1 -109 14 -275 16 -283 3 -5 -8 -37 -7
-117 2 -60 7 -162 13 -226 14 l-116 0 -45 -34 c-61 -47 -315 -205 -618 -384
-140 -83 -256 -155 -258 -161 -2 -6 22 -2 54 9 45 16 59 17 66 8 4 -7 8 -16 8
-19 0 -7 60 31 -820 -516 -393 -244 -723 -453 -732 -464 -22 -26 -20 -33 121
-324 156 -321 321 -638 519 -995 97 -173 230 -423 298 -555 67 -132 146 -283
176 -335 100 -176 311 -593 297 -588 -29 10 -379 650 -379 692 0 8 -13 34 -29
58 -16 24 -68 117 -117 208 -100 188 -92 175 -100 167 -8 -8 31 -111 67 -174
16 -29 29 -59 29 -67 0 -32 442 -920 517 -1039 14 -22 31 -57 39 -78 7 -22 20
-50 29 -62 18 -26 19 -37 3 -37 -7 1 -40 35 -73 77 -32 42 -61 71 -63 65 -2
-8 -9 -9 -21 -3 -14 8 -21 3 -35 -24 l-18 -33 42 -72 c33 -56 39 -74 30 -83
-10 -9 -14 -9 -17 1 -9 25 -56 73 -102 104 -25 17 -50 39 -55 47 -5 9 -35 43
-66 76 -31 33 -71 87 -90 120 -66 120 -160 247 -160 217 0 -5 30 -62 66 -127
73 -131 188 -358 198 -392 30 -97 -138 121 -293 382 -99 166 -186 338 -297
582 -151 333 -430 874 -697 1353 -150 268 -152 272 -185 268 -23 -3 -37 -27
-133 -228 -60 -124 -179 -379 -266 -566 -144 -313 -160 -343 -192 -360 -36
-20 -96 -93 -129 -159 -11 -22 -32 -79 -46 -126 -25 -82 -69 -158 -154 -266
-17 -21 -53 -100 -82 -178 -59 -157 -72 -186 -95 -205 -23 -19 -28 -7 -14 41
6 24 13 90 14 146 l1 102 -26 -5 c-17 -4 -34 1 -50 15 -23 18 -24 22 -11 43
24 37 39 71 46 99 5 21 2 27 -21 37 -25 12 -26 15 -20 63 13 94 113 349 271
689 43 91 105 226 140 300 34 74 96 203 138 285 41 83 90 191 108 240 18 50
44 117 59 149 24 55 27 58 43 42 12 -13 14 -23 7 -41 -6 -15 -6 -27 0 -30 5
-3 24 27 42 67 18 40 58 126 90 191 52 105 67 147 54 147 -17 0 -36 -15 -36
-28 0 -17 -28 -52 -42 -52 -17 0 -7 32 17 54 19 18 25 33 25 64 0 32 6 45 26
61 24 19 28 20 39 5 10 -15 15 -12 43 22 39 47 108 179 151 287 35 86 37 97
19 97 -20 0 -46 -55 -41 -84 4 -21 1 -28 -14 -32 -20 -6 -53 -61 -53 -89 0 -8
-9 -15 -20 -15 -29 0 -25 33 9 72 15 18 38 63 50 100 31 93 70 144 121 158 29
8 40 16 40 30 0 13 -7 20 -20 20 -26 0 -26 22 1 77 26 54 39 55 39 3 0 -29 4
-40 15 -40 10 0 15 10 15 33 0 17 3 42 6 55 5 16 2 22 -10 22 -9 0 -16 7 -16
15 0 30 29 85 44 85 20 0 20 -13 1 -50 -9 -17 -11 -30 -6 -30 12 0 140 206
193 309 45 91 62 171 34 171 -23 0 -20 24 7 68 24 37 42 83 51 132 3 14 22 45
41 68 32 37 34 43 19 49 -10 4 -63 1 -118 -6 -126 -16 -118 -16 -201 -2 -78
12 -484 15 -501 3 -48 -31 -246 -400 -359 -672 -63 -150 -215 -553 -215 -570
0 -63 -601 -1565 -1030 -2575 -150 -352 -275 -650 -277 -661 -3 -12 14 -76 37
-143 24 -67 40 -125 36 -129 -12 -11 -60 54 -127 170 -77 136 -96 141 -114 37
-5 -27 -1 -46 19 -83 27 -50 40 -102 34 -131 -2 -15 -10 -12 -46 19 -42 34
-48 36 -116 36 l-72 0 -11 53 c-17 80 -99 263 -265 587 -121 238 -178 364
-293 655 -347 873 -665 1776 -665 1886 0 40 3 47 16 42 8 -3 18 -18 21 -34 4
-22 11 -29 29 -29 36 0 37 28 4 161 -37 152 -38 172 -8 167 19 -3 54 -77 248
-529 282 -659 282 -659 287 -634 2 11 -40 146 -92 299 -123 360 -195 597 -195
644 l0 37 36 -65 c86 -157 281 -594 456 -1020 86 -210 389 -852 490 -1037 34
-63 65 -110 69 -106 4 4 64 157 134 338 365 952 1010 2510 1318 3186 l34 75
-21 20 c-19 16 -34 19 -114 16 -56 -2 -92 0 -92 6 0 7 -11 6 -29 -1 -23 -9
-36 -8 -56 3 -22 12 -28 12 -35 0 -7 -11 -21 -11 -79 -2 -38 7 -112 12 -164
12 l-94 0 -9 33 -10 32 -84 7 c-101 9 -529 57 -583 65 -22 3 -36 10 -34 17 19
49 18 56 -2 56 -12 0 -21 5 -21 11 0 24 23 49 89 94 69 47 85 51 132 31 13 -6
17 5 25 59 6 36 7 68 2 71 -5 3 -50 13 -101 23 -87 17 -92 19 -95 44 l-3 27
93 0 93 0 65 70 65 69 65 -2 c64 -2 65 -3 74 -34z m867 7 c10 -6 19 -20 19
-30 0 -19 -8 -20 -230 -20 l-230 0 0 30 0 30 211 0 c126 0 218 -4 230 -10z
m439 -45 c0 -21 -5 -25 -30 -25 -25 0 -30 4 -30 25 0 21 5 25 30 25 25 0 30
-4 30 -25z m780 0 c0 -25 0 -25 -95 -25 -95 0 -95 0 -95 25 0 25 0 25 95 25
95 0 95 0 95 -25z m478 -7 l-3 -33 -132 -3 -133 -3 0 26 c0 25 1 25 93 26 50
1 106 5 122 9 53 14 56 12 53 -22z m1372 -1111 c0 -30 -99 -97 -142 -97 -22 0
-28 5 -28 21 0 12 8 23 20 26 10 3 45 18 77 33 68 33 73 34 73 17z m-1810
-121 c0 -16 -27 -29 -41 -20 -19 11 -9 34 16 34 15 0 25 -6 25 -14z m1548
-3841 c27 -42 28 -57 5 -48 -25 9 -42 34 -43 61 0 31 11 27 38 -13z"/>
<path d="M2520 7000 c0 -6 48 -10 125 -10 77 0 125 4 125 10 0 6 -48 10 -125
10 -77 0 -125 -4 -125 -10z"/>
<path d="M5392 6133 c-132 -265 -199 -410 -193 -416 6 -6 21 -5 41 3 43 18
246 152 398 262 217 159 494 330 705 434 64 32 117 64 117 71 0 6 12 21 26 32
l27 21 -314 0 c-222 -1 -324 -4 -349 -13 -28 -10 -42 -10 -70 0 -19 6 -69 12
-110 12 l-76 1 -202 -407z"/>
<path d="M6262 5938 c-16 -16 -15 -28 3 -28 8 0 15 2 15 4 0 2 3 11 6 20 7 19
-7 21 -24 4z"/>
<path d="M2987 4483 c-12 -19 -25 -103 -16 -103 10 0 31 76 27 98 -2 12 -6 13
-11 5z"/>
<path d="M2884 4213 c-131 -311 -519 -1321 -510 -1330 6 -7 111 206 171 347
94 220 312 810 369 998 12 37 -12 25 -30 -15z"/>
<path d="M5200 4161 c0 -5 18 -42 39 -83 22 -40 62 -125 89 -188 27 -63 74
-164 104 -225 31 -60 75 -154 98 -207 24 -55 49 -98 56 -98 8 0 14 6 14 14 0
27 -72 181 -227 488 -137 271 -173 334 -173 299z"/>
<path d="M5046 4020 c17 -62 188 -440 314 -695 126 -255 249 -470 250 -437 0
28 -519 1094 -555 1137 -16 20 -16 19 -9 -5z"/>
<path d="M5191 3968 c0 -7 9 -35 19 -63 14 -39 19 -46 25 -32 5 11 0 34 -10
58 -19 42 -36 60 -34 37z"/>
<path d="M5240 3835 c0 -2 26 -62 58 -132 32 -70 80 -179 107 -241 27 -62 54
-111 59 -108 16 5 13 13 -76 206 -93 203 -148 306 -148 275z"/>
<path d="M3720 3468 c-31 -43 -65 -139 -57 -161 3 -6 17 15 32 48 38 85 66
155 60 155 -3 0 -19 -19 -35 -42z"/>
<path d="M5510 3238 c0 -16 80 -180 111 -224 56 -81 44 -31 -20 83 -60 108
-90 154 -91 141z"/>
<path d="M5460 2988 c0 -20 87 -200 123 -255 43 -66 64 -82 46 -35 -33 86
-169 319 -169 290z"/>
<path d="M5684 2878 c6 -30 96 -192 103 -185 8 9 -84 217 -96 217 -10 0 -12
-8 -7 -32z"/>
<path d="M5870 2296 c0 -8 5 -18 10 -21 6 -3 10 3 10 14 0 12 -4 21 -10 21 -5
0 -10 -6 -10 -14z"/>
<path d="M6087 2224 c-17 -17 -5 -54 25 -79 24 -20 33 -23 39 -13 5 8 0 20
-16 33 -14 11 -28 30 -33 43 -4 13 -11 20 -15 16z"/>
<path d="M6210 2046 c0 -8 5 -18 10 -21 6 -3 10 3 10 14 0 12 -4 21 -10 21 -5
0 -10 -6 -10 -14z"/>
</g>
</svg>
